<?xml version="1.0" encoding="utf-8"?>
<!-- Generator: Adobe Illustrator 19.2.1, SVG Export Plug-In . SVG Version: 6.00 Build 0)  -->
<svg version="1.1" id="layer" xmlns="http://www.w3.org/2000/svg" xmlns:xlink="http://www.w3.org/1999/xlink" x="0px" y="0px"
	 viewBox="0 0 652 652" style="enable-background:new 0 0 652 652;" xml:space="preserve">
<style type="text/css">
	.st0{fill:none;stroke:#2BACE2;stroke-width:0.4984;stroke-miterlimit:10;}
	.st1{fill:none;}
	.st2{fill:#FFC53D;}
	.st3{fill:#CD8833;}
	.st4{fill:#C3922D;}
	.st5{fill:#FFFFFF;}
	.st6{fill:#FCB437;}
	.st7{fill:#0F2D53;}
</style>
<g>
	<line class="st0" x1="197.4" y1="286.7" x2="199.2" y2="286.7"/>
	<line class="st1" x1="197.4" y1="365.9" x2="199.2" y2="365.9"/>
	<polygon class="st2" points="26.5,322.7 35,319.8 28.6,313.7 	"/>
	<polygon class="st3" points="35,319.8 26.5,322.7 65,351 	"/>
	<polygon class="st2" points="65,351 76.9,304.5 85.8,301.2 	"/>
	<polygon class="st4" points="76.9,304.5 65,351 35,319.8 	"/>
	<path class="st5" d="M63,324.6l0,0.1h0.3l2.2-2.7H50.1l-1.5,2.2h14c0.4,0,0.5,0.1,0.5,0.2v0L63,324.6z M67.6,328.8
		c-0.1,0.1-0.3,0.1-0.3,0.2l-10.8,0c-2.5,0-4.4-0.3-5.6-1c-1.9-1-2.8-2.4-2.8-4.3c0-0.9,0.2-1.7,0.7-2.4c0.9-1.4,2.4-2.2,4.3-2.6
		c0.5-0.1,1-0.2,1.3-0.2c0.6,0,1.2,0,2,0h3.3c0.4,0,0.5,0.1,0.5,0.2v0l0,0.2l0,0.1h0.3l2.2-2.7h-6.3c-1.5,0-2.7,0-3.6,0.2
		c-0.5,0.1-0.9,0.1-1.3,0.2c-1.1,0.2-2.1,0.6-3.1,1.2c-1.6,0.9-2.7,2.1-3.4,3.4c-0.4,0.8-0.6,1.6-0.6,2.6c0,2.4,1.3,4.3,3.8,5.7
		c1.2,0.6,2.5,1.1,3.9,1.3c1.1,0.2,2.5,0.3,4.3,0.3h10l2.2-2.7h-0.5L67.6,328.8z"/>
	<polygon class="st6" points="28.6,313.7 35,319.8 85.8,301.2 	"/>
	<path class="st7" d="M122.3,316.9l0-9l0-0.1c0,0,0,0,0.1-0.1l0.3-0.2l0,0v-0.2h-3.2v0.2l0.3,0.2c0,0,0.1,0.1,0.1,0.1l0,9l0,0.1
		c0,0-0.1,0.1-0.1,0.1l-0.3,0.2l0,0v0.2h3.2v-0.2l-0.3-0.2C122.3,317,122.3,317,122.3,316.9"/>
	<path class="st7" d="M130.5,316.2l0.1-0.1l2.2-2.4l0-5.8l0-0.1l0.1-0.1l0.3-0.2l0,0v-0.2H130v0.2l0.3,0.2c0.1,0.1,0.1,0.1,0.1,0.2
		v3.1h-6.7l-1.4,1.8l0.2,0.1l0,0l0.4-0.3c0.1-0.1,0.2-0.1,0.2-0.1c0,0,0.1,0,0.2,0h7L130.5,316.2z"/>
	<path class="st7" d="M138.1,309.2l-7.8,8.2h3.4v-0.2h-0.1c-0.1,0-0.1,0-0.2,0c-0.1,0-0.2-0.1-0.2-0.1l6.2-6.4L138.1,309.2z"/>
	<path class="st7" d="M165.4,311.3c-0.4-1.2-1.2-2.2-2.6-2.9c-1.2-0.7-3-1-5.3-1h-8.9v0.2l0.3,0.2c0,0,0.1,0.1,0.1,0.1l0,1h4.4v0
		h4.1c1.7,0,3,0.2,3.8,0.7c1.2,0.7,1.8,1.7,1.9,2.9c0,0.6-0.2,1.2-0.5,1.7c-0.3,0.5-0.8,0.9-1.4,1.2c-0.8,0.4-2.1,0.7-3.8,0.7h-4.5
		v-6.6h-2.3l0,7.5l0,0.1c0,0,0,0-0.1,0.1l-0.3,0.2l0,0v0.2h7.3c1.4,0,2.5-0.1,3.3-0.2c1-0.2,2-0.6,2.8-1.1c0.8-0.5,1.4-1.2,1.7-1.9
		c0.2-0.5,0.4-1.1,0.4-1.7C165.5,312.1,165.5,311.7,165.4,311.3"/>
	<path class="st7" d="M138.6,308.7l1.5,1.6l1.7,1.7H139l-1.4,1.6l0.2,0.1l0,0l0.3-0.2c0,0,0.1,0,0.1,0c0,0,0.2,0,0.4,0h4.5l3.2,3.4
		c0,0,0,0,0.1,0.1l0,0.1c0,0-0.1,0.1-0.4,0.1H146v0.2h3.4l-9.5-10.1L138.6,308.7z"/>
	<path class="st7" d="M115.3,307.5l0.3,0.2c0.1,0.1,0.1,0.1,0.1,0.2v8.9l0,0.1c0,0-0.1,0.1-0.1,0.1l-0.3,0.2l0,0v0.2h3.1v-0.2
		l-0.3-0.2c-0.1,0-0.1-0.1-0.1-0.1l0-9l0-0.1l0.1-0.1l0.2-0.2l0,0v-0.2h-3.1V307.5z"/>
	<path class="st7" d="M101.6,315.8c-0.1,0.1-0.2,0.1-0.2,0.1l-7.3,0c-1.7,0-3-0.2-3.8-0.7c-1.3-0.7-1.9-1.6-1.9-2.9
		c0-0.6,0.2-1.1,0.5-1.6c0.6-0.9,1.6-1.5,2.9-1.8c0.4-0.1,0.7-0.1,0.9-0.1c0.4,0,0.8,0,1.3,0h2.3c0.2,0,0.3,0.1,0.3,0.1v0l0,0.1
		l0,0.1h0.2l1.5-1.8H94c-1,0-1.8,0-2.4,0.1c-0.3,0-0.6,0.1-0.9,0.1c-0.7,0.2-1.4,0.4-2.1,0.8c-1.1,0.6-1.9,1.4-2.3,2.3
		c-0.3,0.5-0.4,1.1-0.4,1.8c0,1.6,0.9,2.9,2.6,3.8c0.8,0.4,1.7,0.7,2.6,0.9c0.7,0.1,1.7,0.2,2.9,0.2h6.8l1.5-1.8H102L101.6,315.8z"
		/>
	<path class="st7" d="M98.5,312.9L98.5,312.9l0.2,0.1l1.5-1.9H89.7l-1,1.5h9.5c0.2,0,0.3,0.1,0.3,0.1v0L98.5,312.9z"/>
	<path class="st7" d="M99.4,307.3l-1.4,1.8l0.2,0.1l0,0l0.4-0.2c0.1-0.1,0.3-0.1,0.4-0.1h5.9v8l0,0.1c0,0-0.1,0.1-0.1,0.1l-0.3,0.2
		l0,0v0.2h3.2v-0.2l-0.3-0.2l-0.1-0.1c0,0,0,0,0-0.1v-8h5.3c0.2,0,0.3,0.1,0.3,0.1v0.2h0.2l1.5-1.8
		C114.6,307.3,99.4,307.3,99.4,307.3z"/>
	<polygon class="st7" points="89.6,322.1 90.7,322.1 94.2,331.1 92.4,331.1 91.7,329.3 89.4,329.3 88.9,328 91.2,328 90.3,325.5 
		90,324.7 89.8,325.5 87.7,331.1 86,331.1 	"/>
	<rect x="99.8" y="322.1" class="st7" width="1.7" height="9"/>
	<path class="st7" d="M110.7,328.2h-1v3h-1.7v-9h2.9c2.1,0,3.3,0.9,3.3,2.9c0,1.4-0.6,2.5-1.8,2.9l2.5,3.2h-2L110.7,328.2z
		 M110.8,326.9c1.1,0,1.5-0.7,1.5-1.8c0-1-0.4-1.7-1.5-1.7h-1.1v3.4H110.8z"/>
	<polygon class="st7" points="119.2,322.1 121.1,322.1 122.7,328.5 122.8,328.5 124.4,323.6 123.9,322.1 125.6,322.1 127.7,328.5 
		127.8,328.5 129.4,322.1 131.2,322.1 128.4,331.1 127,331.1 125.2,325.6 123.3,331.1 121.9,331.1 	"/>
	<polygon class="st7" points="138.7,322.1 139.9,322.1 143.4,331.1 141.6,331.1 140.9,329.3 138.5,329.3 138,328 140.4,328 
		139.4,325.5 139.2,324.7 138.9,325.5 136.8,331.1 135.1,331.1 	"/>
	<polygon class="st7" points="149.9,327.4 147,322.1 148.9,322.1 150.9,325.9 152.9,322.1 154.6,322.1 151.7,327.4 151.7,331.1 
		149.9,331.1 	"/>
	<path class="st7" d="M159.7,330.7v-1.8c0.4,0.4,1.3,0.9,2.3,0.9c1.2,0,1.6-0.5,1.6-1.3c0-0.7-0.4-1-1.5-1.2l-0.3-0.1
		c-1.5-0.4-2.3-1.2-2.3-2.6c0-1.7,1.1-2.8,3.2-2.8c1.3,0,2,0.4,2.3,0.6v1.8c-0.4-0.4-1.3-0.9-2.4-0.9c-1,0-1.5,0.3-1.5,1.1
		c0,0.6,0.3,1,1.4,1.2l0.3,0.1c1.6,0.4,2.4,1.1,2.4,2.5c0,1.8-1.1,3-3.4,3C160.7,331.3,160,331,159.7,330.7"/>
	<path class="st7" d="M86,344.5v-9.1h2.8c1.3,0,2.2,0.3,2.7,0.8c0.6,0.5,0.8,1.3,0.8,2.2c0,1-0.3,1.8-0.8,2.5
		c-0.6,0.6-1.4,0.9-2.6,0.9h-1.2v2.7H86z M87.7,336.9v3.7h1.1c1.2,0,1.8-0.6,1.8-1.9c0-0.6-0.1-1-0.4-1.3c-0.3-0.3-0.7-0.5-1.4-0.5
		C88.8,336.9,87.7,336.9,87.7,336.9z"/>
	<polygon class="st7" points="96.4,344.5 100,335.5 101.2,335.5 104.7,344.5 102.9,344.5 102.2,342.7 99.8,342.7 99.3,341.4 
		101.7,341.4 100.8,338.9 100.5,338.1 100.2,338.9 98.1,344.5 	"/>
	<path class="st7" d="M115,344.5l-2.1-3h-1v3h-1.8v-9.1h2.9c1.1,0,1.9,0.2,2.4,0.7c0.6,0.5,0.8,1.2,0.8,2.2c0,0.7-0.2,1.3-0.5,1.8
		c-0.3,0.5-0.8,0.9-1.4,1.1l2.5,3.2H115z M111.9,340.3h1.1c1,0,1.5-0.6,1.5-1.8c0-0.5-0.1-1-0.3-1.2c-0.2-0.3-0.6-0.4-1.2-0.4h-1.1
		L111.9,340.3L111.9,340.3z"/>
	<polygon class="st7" points="124.1,344.5 124.1,337 121.5,337 121.5,335.5 128.6,335.5 128.1,337 125.8,337 125.8,344.5 	"/>
	<polygon class="st7" points="134,344.5 134,335.5 135.5,335.5 139.7,341.4 139.7,341.4 139.7,335.5 141.3,335.5 141.3,344.5 
		140,344.5 135.6,338.4 135.6,338.4 135.6,344.5 	"/>
	<polygon class="st7" points="147.6,344.5 147.6,335.5 153.5,335.5 153.1,337 149.4,337 149.4,339.2 152.1,339.2 152.1,340.5 
		149.4,340.5 149.4,343 153.1,343 153.5,344.5 	"/>
	<path class="st7" d="M164.1,344.5l-2.1-3h-1v3h-1.8v-9.1h2.9c1.1,0,1.9,0.2,2.4,0.7c0.6,0.5,0.8,1.2,0.8,2.2c0,0.7-0.2,1.3-0.5,1.8
		c-0.3,0.5-0.8,0.9-1.4,1.1l2.5,3.2H164.1z M161.1,340.3h1.1c1,0,1.5-0.6,1.5-1.8c0-0.5-0.1-1-0.3-1.2c-0.2-0.3-0.6-0.4-1.2-0.4
		h-1.1L161.1,340.3L161.1,340.3z"/>
	<rect x="197.1" y="286.6" class="st7" width="1.5" height="78.3"/>
	<path class="st7" d="M410.1,344.1l3.3-15.9c0.7-3.2,1.7-5.9,3-8c1.4-2.1,3-3.9,4.8-5.2c1.8-1.2,3.7-2.1,5.9-2.6
		c2.1-0.6,4.3-0.8,6.4-0.8c0.2,0,0.4,0,0.6,0c0.2,0,2.3,0,2.4,0c0,0-1.2,1.5-2.1,3.7c-0.6,1.7-0.7,5-0.7,5l-3.4,0
		c-2.5,0-4.4,0.5-5.7,1.7c-1.4,1.1-2.3,2.9-2.8,5.4l-3.5,16.8L410.1,344.1z"/>
	<path class="st7" d="M435.2,332.5l7.6,0c-0.3,2.1,0.1,3.6,1.3,4.5c1.2,1,3,1.5,5.6,1.5c2.2,0,4.1-0.4,5.4-1.2
		c1.4-0.8,2.3-1.9,2.7-3.4c0.6-2.3-2.1-4.1-8.2-5.6l-0.2-0.1l-0.8-0.2c-3.5-0.8-5.7-1.6-6.7-2.5c-1.2-0.8-1.9-1.9-2.1-3.4
		c-0.4-1.3-0.3-2.9,0.3-4.9c1-3.5,2.9-6.3,6-8.3c3-1.9,6.8-2.9,11.5-2.9c4.4,0,7.5,1,9.4,3c1.8,2.2,2.4,5.1,1.5,8.7l-4.3,0
		c-1.7,0-2.6-0.8-3-2.3c-0.2-0.7-0.5-1.3-1-1.8c-1-0.9-2.7-1.4-4.9-1.4c-2.2,0-3.8,0.4-5,1.2c-1.3,0.8-2.1,1.9-2.5,3.3
		c-0.5,1.9,1.2,3.4,5.1,4.3c1.1,0.4,2,0.6,2.5,0.6c1.2,0.4,2.2,0.8,3.1,1c0.9,0.3,1.6,0.4,2.2,0.6c0.9,0.4,1.8,0.9,2.7,1.3
		c1.2,0.9,2,2,2.5,3.3c0.4,1.5,0.3,3.1-0.2,4.9c-1.1,3.9-3.2,6.9-6.4,9c-3.2,2-7.1,3-11.9,3c-4.9,0-8.3-1-10.2-3.1
		C434.9,339.6,434.3,336.6,435.2,332.5"/>
	<path class="st7" d="M469,344l9.1-33c0.3-1.1,0.9-2,1.9-2.7c1-0.8,2-1.1,3.1-1.1l23.2,0l-1.7,6.3h-19.5l-2.2,7.9l14.6,0l-0.7,2.5
		c-0.3,1.1-0.9,2-1.9,2.7c-1,0.8-2,1.1-3.1,1.1l-10.6,0l-2.6,9.5l19.6,0l-1.9,6.9L469,344L469,344z"/>
	<path class="st7" d="M503.1,344.1l9.1-33.1c0.3-1.1,0.9-2,1.9-2.7c1-0.8,2-1.1,3.1-1.1l14.2,0c4.1,0,6.8,0.9,8.3,2.6
		c1.5,1.8,1.8,4.4,0.9,7.8c-0.6,2.3-1.7,4.2-3.1,5.7c-1.3,1.4-2.9,2.5-5,3.1c1.5,0.6,2.4,1.4,2.8,2.6c0.4,1.1,0.3,2.9-0.3,5.5
		l-1,4.4c-0.1,0.4-0.2,0.9-0.4,1.4c-0.1,0.5-0.2,1-0.3,1.4c-0.1,1.3,0.1,2.1,0.6,2.5h-8.5c-0.2-0.7-0.2-1.5,0-2.3
		c0.2-1.1,0.3-1.9,0.4-2.4l1-4c0.4-2.2,0.4-3.7,0-4.6c-0.6-0.8-1.9-1.2-3.9-1.2l-8.1,0l-3.9,14.4L503.1,344.1L503.1,344.1z
		 M516.5,323.2l9,0c2,0,3.5-0.4,4.7-1.2c1.2-0.8,2-2,2.4-3.6c0.5-1.6,0.3-2.9-0.4-3.6c-0.6-0.9-1.8-1.3-3.6-1.3l-9.4,0L516.5,323.2z
		"/>
	<path class="st7" d="M540.1,344.1l9.1-33c0.3-1.1,0.9-2,1.9-2.7c1-0.7,2-1.1,3.1-1.1h13.6c3.8,0,6.6,0.8,8.1,2.4
		c1.6,1.7,1.9,4,1.1,7c-0.5,1.9-1.3,3.4-2.5,4.7c-1.1,1.2-2.5,2.2-4.2,2.9c1.7,0.8,2.8,1.9,3.4,3.3c0.6,1.4,0.5,3.1-0.1,5.4
		c-1,3.6-2.9,6.4-5.8,8.4c-2.9,1.9-6.6,2.9-10.9,2.9L540.1,344.1L540.1,344.1z M553.6,321.4l8.8,0c1.9,0,3.3-0.3,4.4-1
		c1-0.6,1.8-1.6,2.1-3c0.4-1.4,0.2-2.4-0.5-3c-0.6-0.6-1.9-0.9-4-0.9l-8.7,0L553.6,321.4z M549.3,337.4l9.1,0c2,0,3.7-0.4,5-1.2
		c1.2-0.7,2.1-1.9,2.5-3.7c0.5-1.7,0.3-3-0.5-3.8c-0.7-0.7-2.2-1.1-4.5-1.1l-9,0L549.3,337.4z"/>
	<path class="st7" d="M577.7,344.1l9-33c0.3-1.1,0.9-2,1.9-2.7c1-0.8,2-1.2,3.1-1.2h3.8l-10.1,36.9L577.7,344.1L577.7,344.1z"/>
	<path class="st7" d="M408.2,313.7c0.2-1,0-2-0.6-2.7c-0.6-0.8-1.5-1.2-2.6-1.3l-4.3,0l-1.8,8.5C403,316.4,406.4,314.6,408.2,313.7"
		/>
	<path class="st7" d="M406.8,320.3c-3.3,1.5-6.3,2.6-9.1,3.6l-4.2,20.2h8.4l5-24L406.8,320.3z"/>
	<path class="st7" d="M616.8,330.3L616.8,330.3h-9.6l9.5-15.6l1,16.7c2.2-0.3,5,0.9,7.6,0.1l-2.3-24.2h-6c-1.8,0-3.3,0.9-4.5,2.5
		l-21.8,34.4h8.2l4.5-7.6l14.5,0l0.4,7.6h8.2l-1.4-14.6C619.7,330.4,616.8,330.3,616.8,330.3"/>
	<path class="st7" d="M376.9,330.3L376.9,330.3h-9.6l9.5-15.6l0.8,13.1c2.2-0.3,4.8-0.9,7.4-1.7l-1.8-18.8h-6
		c-1.8,0-3.3,0.9-4.4,2.5l-21.8,34.4h8.2l4.5-7.6l14.5,0l0.4,7.6h8.2l-1.4-14.6C379.8,330.4,376.9,330.3,376.9,330.3"/>
	<polygon class="st7" points="276.9,341.6 282.1,347.6 285.4,343.7 278.8,336.1 275.5,332.3 272.4,328.7 269.4,332.7 272.8,336.8 
		272.8,336.8 	"/>
	<path class="st7" d="M343.2,312.6c-4.7-4.6-9.7-6.8-14.9-6.6c-4.1,0.2-7.4,1.9-9.7,3.5c-0.1,0.1-0.2,0.1-0.3,0.2c0,0-0.1,0-0.1,0.1
		c-0.3,0.2-0.6,0.4-0.8,0.6l-3.6-3.9c-0.9-1-2.2-2.7-2.5-3.6c-0.3-0.7-0.3-1.5-0.4-1.9c-0.3-1.5-0.5-4.1-0.5-4.1s0-0.6-0.3-1.3
		l-0.4-0.9c0,0,3-1.3,5.1-1.2l1.3,1.6l0-1.5v-2.2c0,0-0.1-1.2-1.3-2.1c-0.8-0.7-1.2-0.7-2.3-0.9c-1.3-0.2-1.5,0.2-2.5-0.7l-0.9-1.3
		l-5.6,0l-2.2,0.8c0,0-1.2,0.3-2,2.3l-1.7,5.2c0,0-0.5,1.7-0.5,4.4c-0.1,2.6-0.1,0.1-0.1,0.1s-0.1,3.9-0.6,5.1l-0.9,3.1
		c-1.3,3.1-2.6,4.6-2.6,4.6l-5,5.8h0l-1.4,1.6l-1.4-1.6l0,0l-3.1-3.5l-0.4-0.5h0l-1.5-1.8c0,0-1.4-1.6-2.7-4.9l-0.8-2.8
		c-0.5-1.2-0.6-5.1-0.6-5.1s0,2.5-0.1-0.1c-0.1-2.6-0.5-4.4-0.5-4.4l-1.7-5.2c-0.8-2-2-2.3-2-2.3l-2.2-0.8l-5.6,0l-0.9,1.3
		c-1,0.9-1.2,0.6-2.5,0.7c-1,0.2-1.4,0.2-2.3,0.9c-1.1,0.9-1.3,2.1-1.3,2.1v2.2l0,1.5l1.3-1.6c2.1-0.1,5.1,1.2,5.1,1.2l-0.4,0.9
		c-0.3,0.7-0.3,1.3-0.3,1.3s-0.2,2.5-0.5,4.1c-0.1,0.4-0.1,1.2-0.4,1.9c-0.5,1.3-2.7,3.8-3.2,4.4l-2.9,3.1c-2.2-1.8-6-4.1-10.8-4.3
		c-5.2-0.2-10.2,2-14.9,6.6l-1.4,1.4l1.1,1.7c0.2,0.3,4,6.2,11,7.6c4.5,0.9,9.4-0.5,14-3.8l-3.4-3.8c-3.5,2.5-6.6,3.3-9.6,2.7
		c-2.9-0.6-5.1-2.4-6.4-3.7c3.1-2.6,6.3-3.8,9.4-3.7c5.5,0.2,9.3,4.5,9.4,4.6l8.1,9.4l3.3-3.8l-6.2-7.2l7.3-9.1l3-3.7
		c0.7,3.7,4,10,5.5,12.2l-8.1,9.4l0,0l-3.2,3.8h0l0,0.1l0,0h0l-3.5,4c-1.8,1.9-8.1,8.1-15.4,12.1c0,0,2.3,1.6,5.3,1.5
		c1.8,0,3.9-0.6,5.9-2.5c0.8-0.8,2-1.9,3.2-3c0,0-0.6,1.3,0.8,3.8c1,1.9,2.8,3,5.2,3.1c3.7,0.1,6.4-1.8,8.3-4.1l-2.7-3
		c0,0-2.4,3.5-5.4,1.3c-1.1-1-1-2.7-1-2.7s0-0.6,0.5-1.8c2-3.4,7.5-10.6,10.8-14.8l2.5-3.2l3.6,4.1l0,0l1.4,1.6l0,0l0.1,0.1
		l-6.3,7.8l2.9,3.2l6.7-7.3l0,0l0,0l8.1,9l0,0l3.4,3.8v0l1.2,1.3l0.8,0.9c1.8,2,4.4,3.7,7.9,3.6c2.4-0.1,4.2-1.2,5.2-3.1
		c1.3-2.4,0.8-3.8,0.8-3.8c1.2,1.2,2.4,2.2,3.2,3c5.4,5.1,11.3,1,11.3,1c-7.4-4-13.6-10.2-15.4-12.1l-2-2.3l-4.1,4.6
		c2,2.7,1.9,4.2,1.9,4.2s0.1,1.7-1,2.7c-2.9,2.1-5.5-1.5-5.5-1.5l-8.2-9.9l0,0l-4.2-5.2l0.1-0.1l0,0l3.1-3.6l0,0l1.9-2.2l0.8,1
		l5.3,7.2l3.7-4.5l-6.1-7.1l0,0l-0.6-0.7c1.4-2.2,4.8-8.5,5.4-12.2l3,3.7l7.3,9.1l-1.5,1.7h0l-6.1,7.1l-5.3,6.1l-1.6,1.8l3.3,3.8
		l2.6-3.1l0.3-0.3l4-4.6l2.3-2.7l7.2-8.3c0,0,3.9-4.3,9.4-4.6c3.1-0.1,6.3,1.1,9.4,3.7c-1.3,1.4-3.5,3.2-6.4,3.7
		c-3.1,0.6-6.2-0.3-9.7-2.8l-3.3,3.8c4.6,3.3,9.5,4.7,14,3.8c6.9-1.3,10.8-7.3,11-7.6l1.1-1.7L343.2,312.6z"/>
	<path class="st7" d="M291.5,350.7l-3.4,4l0.4,0.5l0,0l2.1,2.4c1.1,1.3,4.1,4.8,4.5,8.3c0,0,3-4.1,0.7-9.8
		C295.8,356.1,295.5,354.6,291.5,350.7"/>
	<path class="st7" d="M288.9,343l-5.4,6.2c-5.4,5-5.8,6.9-5.8,6.9c-2.2,5.7,0.7,9.8,0.7,9.8c0.5-3.5,3.4-7,4.5-8.3l2.1-2.4l0,0
		l7.4-8.6l0,0l4.4-5.1l-3.3-3.9L288.9,343z"/>
</g>
</svg>
